<svg width="70" height="70" viewBox="0 0 70 70" fill="none" xmlns="http://www.w3.org/2000/svg">
<circle cx="35" cy="35" r="35" fill="#535353"/>
<path d="M40.3313 25.8799C37.1415 25.8799 34.5072 23.8095 30.4969 23.8095C29.0115 23.8095 27.6809 24.0705 26.4466 24.5246C26.6177 24.0778 26.6905 23.5995 26.6601 23.1221C26.5546 21.4294 25.167 20.0718 23.4725 20.0028C21.5682 19.9253 20 21.4462 20 23.3333C20 24.4658 20.5653 25.4658 21.4286 26.0681V49.0476C21.4286 49.8366 22.0682 50.4762 22.8571 50.4762H23.8095C24.5985 50.4762 25.2381 49.8366 25.2381 49.0476V43.4285C26.9233 42.7105 29.0227 42.1118 32.0497 42.1118C35.2395 42.1118 37.8738 44.1822 41.884 44.1822C44.7513 44.1822 47.0428 43.2123 49.176 41.7502C49.6929 41.3959 50 40.8078 50 40.1812V25.711C50 24.3186 48.5554 23.3973 47.2926 23.9838C45.2486 24.9331 42.7417 25.8799 40.3313 25.8799Z" fill="white"/>
</svg>
