<svg width="70" height="70" viewBox="0 0 70 70" fill="none" xmlns="http://www.w3.org/2000/svg">
<circle cx="35" cy="35" r="35" fill="#535353"/>
<g clip-path="url(#clip0)">
<path d="M49.3162 20H46.5383C46.4431 19.9999 46.3488 20.0191 46.2613 20.0565C46.1737 20.0939 46.0946 20.1487 46.0289 20.2176C45.9631 20.2865 45.9121 20.368 45.8788 20.4572C45.8455 20.5464 45.8306 20.6414 45.8351 20.7365L46.0695 25.5857C44.7068 23.98 43.0106 22.6904 41.099 21.8067C39.1873 20.923 37.106 20.4664 35 20.4688C26.9926 20.4688 20.4629 27.0037 20.4687 35.0111C20.4746 43.0314 26.9785 49.5312 35 49.5312C38.5983 49.5363 42.0695 48.2013 44.7371 45.7865C44.8084 45.7227 44.8659 45.6451 44.9061 45.5583C44.9463 45.4716 44.9684 45.3775 44.9711 45.2819C44.9737 45.1863 44.9568 45.0912 44.9214 45.0024C44.886 44.9135 44.8329 44.8328 44.7652 44.7652L42.773 42.773C42.647 42.647 42.4777 42.5735 42.2995 42.5676C42.1213 42.5616 41.9475 42.6235 41.8133 42.7408C40.2391 44.1258 38.2802 44.998 36.1977 45.2412C34.1152 45.4845 32.008 45.0871 30.1571 44.1022C28.3062 43.1173 26.7994 41.5916 25.8377 39.7285C24.876 37.8654 24.505 35.7535 24.7742 33.6742C25.0435 31.5949 25.9401 29.647 27.3446 28.0903C28.7491 26.5336 30.5947 25.4419 32.6355 24.9609C34.6762 24.4799 36.8151 24.6323 38.767 25.3979C40.7189 26.1635 42.391 27.5059 43.5605 29.2461L37.6115 28.9607C37.5164 28.9562 37.4214 28.9711 37.3322 29.0044C37.243 29.0377 37.1615 29.0887 37.0926 29.1545C37.0237 29.2202 36.9689 29.2993 36.9315 29.3868C36.8941 29.4744 36.8749 29.5687 36.875 29.6639V32.4418C36.875 32.6283 36.9491 32.8071 37.0809 32.939C37.2128 33.0708 37.3916 33.1449 37.5781 33.1449H49.3162C49.5027 33.1449 49.6815 33.0708 49.8134 32.939C49.9452 32.8071 50.0193 32.6283 50.0193 32.4418V20.7031C50.0193 20.5166 49.9452 20.3378 49.8134 20.2059C49.6815 20.0741 49.5027 20 49.3162 20V20Z" fill="white"/>
</g>
<defs>
<clipPath id="clip0">
<rect width="30" height="30" fill="white" transform="translate(20 20)"/>
</clipPath>
</defs>
</svg>
